<svg width="25" height="25" viewBox="0 0 25 25" fill="none" xmlns="http://www.w3.org/2000/svg">
<path d="M3.125 7.03125C3.125 5.18958 3.125 4.26875 3.69792 3.69792C4.26771 3.125 5.18854 3.125 7.03125 3.125C8.87396 3.125 9.79375 3.125 10.3646 3.69792C10.9375 4.26875 10.9375 5.18958 10.9375 7.03125C10.9375 8.87292 10.9375 9.79375 10.3646 10.3646C9.79375 10.9375 8.87292 10.9375 7.03125 10.9375C5.18958 10.9375 4.26875 10.9375 3.69792 10.3646C3.125 9.79479 3.125 8.87396 3.125 7.03125ZM3.125 17.976C3.125 16.1344 3.125 15.2135 3.69792 14.6427C4.26875 14.0698 5.18958 14.0698 7.03125 14.0698C8.87292 14.0698 9.79375 14.0698 10.3646 14.6427C10.9375 15.2135 10.9375 16.1344 10.9375 17.976C10.9375 19.8177 10.9375 20.7385 10.3646 21.3094C9.79375 21.8823 8.87292 21.8823 7.03125 21.8823C5.18958 21.8823 4.26875 21.8823 3.69792 21.3094C3.125 20.7396 3.125 19.8177 3.125 17.976ZM14.0625 7.03125C14.0625 5.18958 14.0625 4.26875 14.6354 3.69792C15.2062 3.125 16.1271 3.125 17.9687 3.125C19.8104 3.125 20.7313 3.125 21.3021 3.69792C21.875 4.26875 21.875 5.18958 21.875 7.03125C21.875 8.87292 21.875 9.79375 21.3021 10.3646C20.7313 10.9375 19.8104 10.9375 17.9687 10.9375C16.1271 10.9375 15.2062 10.9375 14.6354 10.3646C14.0625 9.79375 14.0625 8.87292 14.0625 7.03125ZM14.0625 17.976C14.0625 16.1344 14.0625 15.2135 14.6354 14.6427C15.2062 14.0698 16.1271 14.0698 17.9687 14.0698C19.8104 14.0698 20.7313 14.0698 21.3021 14.6427C21.875 15.2135 21.875 16.1344 21.875 17.976C21.875 19.8177 21.875 20.7385 21.3021 21.3094C20.7313 21.8823 19.8104 21.8823 17.9687 21.8823C16.1271 21.8823 15.2062 21.8823 14.6354 21.3094C14.0625 20.7385 14.0625 19.8177 14.0625 17.976Z" stroke="#37FFE8" stroke-width="1.5" stroke-linecap="round" stroke-linejoin="round"/>
</svg>
