<svg width="21" height="21" viewBox="0 0 21 21" fill="none" xmlns="http://www.w3.org/2000/svg">
<path d="M8.58942 3.5267C9.07358 3.1142 9.31608 2.90754 9.56942 2.7867C9.85856 2.64874 10.1749 2.57715 10.4953 2.57715C10.8156 2.57715 11.1319 2.64874 11.4211 2.7867C11.6744 2.90754 11.9169 3.1142 12.4011 3.5267C12.9003 3.9517 13.4069 4.1667 14.0736 4.2192C14.7078 4.27004 15.0253 4.29587 15.2903 4.3892C15.9019 4.60587 16.3836 5.0867 16.5994 5.6992C16.6928 5.96337 16.7186 6.28087 16.7694 6.91587C16.8219 7.58254 17.0361 8.08837 17.4611 8.58754C17.8744 9.0717 18.0811 9.3142 18.2019 9.56754C18.4819 10.1534 18.4819 10.8342 18.2019 11.4192C18.0811 11.6725 17.8744 11.915 17.4619 12.3992C17.049 12.8626 16.8049 13.452 16.7694 14.0717C16.7186 14.7059 16.6928 15.0234 16.5994 15.2884C16.4924 15.5904 16.3193 15.8647 16.0926 16.0912C15.866 16.3177 15.5915 16.4907 15.2894 16.5975C15.0253 16.6909 14.7078 16.7167 14.0728 16.7675C13.4061 16.82 12.9003 17.0342 12.4011 17.4592C11.9169 17.8725 11.6744 18.0792 11.4211 18.2C11.1319 18.338 10.8156 18.4096 10.4953 18.4096C10.1749 18.4096 9.85856 18.338 9.56942 18.2C9.31608 18.0792 9.07358 17.8725 8.58942 17.46C8.12604 17.0471 7.53659 16.803 6.91692 16.7675C6.28275 16.7167 5.96525 16.6909 5.70025 16.5975C5.3982 16.4905 5.12389 16.3174 4.89738 16.0907C4.67087 15.8641 4.49789 15.5897 4.39108 15.2875C4.29775 15.0234 4.27192 14.7059 4.22108 14.0709C4.18566 13.4516 3.94191 12.8625 3.52942 12.3992C3.11608 11.915 2.90942 11.6725 2.78775 11.4192C2.64992 11.13 2.57847 10.8136 2.57861 10.4933C2.57876 10.1729 2.6505 9.85662 2.78858 9.56754C2.90942 9.3142 3.11608 9.0717 3.52858 8.58754C3.96192 8.07837 4.16942 7.56837 4.22108 6.91504C4.27192 6.28087 4.29775 5.96337 4.39108 5.69837C4.49808 5.39632 4.67124 5.12201 4.89789 4.8955C5.12455 4.66899 5.39897 4.49601 5.70108 4.3892C5.96525 4.29587 6.28275 4.27004 6.91775 4.2192C7.53703 4.18378 8.12615 3.93919 8.58942 3.5267Z" stroke="black" stroke-width="1.4" stroke-linecap="round" stroke-linejoin="round"/>
<path d="M14.6619 16.4932C14.3978 11.3373 6.59278 11.3373 6.32861 16.4932M12.5786 8.2015C12.5786 8.75403 12.3591 9.28394 11.9684 9.67464C11.5777 10.0653 11.0478 10.2848 10.4953 10.2848C9.94275 10.2848 9.41284 10.0653 9.02214 9.67464C8.63144 9.28394 8.41195 8.75403 8.41195 8.2015C8.41195 7.64896 8.63144 7.11906 9.02214 6.72836C9.41284 6.33766 9.94275 6.11816 10.4953 6.11816C11.0478 6.11816 11.5777 6.33766 11.9684 6.72836C12.3591 7.11906 12.5786 7.64896 12.5786 8.2015Z" stroke="black" stroke-width="1.4" stroke-linecap="round" stroke-linejoin="round"/>
</svg>
