<svg width="30" height="30" viewBox="0 0 30 30" fill="none" xmlns="http://www.w3.org/2000/svg">
<path d="M20.625 6.25V3.75M9.375 6.25V3.75M4.0625 10H25.9375M3.75 12.555C3.75 9.91125 3.75 8.58875 4.295 7.57875C4.78781 6.67788 5.55249 5.95563 6.48 5.515C7.55 5 8.95 5 11.75 5H18.25C21.05 5 22.45 5 23.52 5.515C24.4613 5.9675 25.225 6.69 25.705 7.5775C26.25 8.59 26.25 9.9125 26.25 12.5563V18.6962C26.25 21.34 26.25 22.6625 25.705 23.6725C25.2122 24.5734 24.4475 25.2956 23.52 25.7363C22.45 26.25 21.05 26.25 18.25 26.25H11.75C8.95 26.25 7.55 26.25 6.48 25.735C5.55268 25.2947 4.78801 24.5729 4.295 23.6725C3.75 22.66 3.75 21.3375 3.75 18.6937V12.555Z" stroke="#F4CDCD" stroke-width="2.5" stroke-linecap="round" stroke-linejoin="round"/>
</svg>
