<svg width="25" height="25" viewBox="0 0 25 25" fill="none" xmlns="http://www.w3.org/2000/svg">
<path d="M6.38862 21.8748C5.16154 21.8748 4.16675 20.854 4.16675 19.5935V10.4248C4.16675 9.73209 4.47404 9.07584 5.00008 8.64355L11.1115 3.6248C11.502 3.30145 11.9931 3.12451 12.5001 3.12451C13.0071 3.12451 13.4981 3.30145 13.8886 3.6248L19.999 8.64355C20.5261 9.07584 20.8334 9.73209 20.8334 10.4248V19.5935C20.8334 20.854 19.8386 21.8748 18.6115 21.8748H6.38862Z" stroke="white" stroke-width="1.5" stroke-linecap="round" stroke-linejoin="round"/>
<path d="M9.896 21.875V16.1458C9.896 15.5933 10.1155 15.0634 10.5062 14.6727C10.8969 14.282 11.4268 14.0625 11.9793 14.0625H13.021C13.5735 14.0625 14.1034 14.282 14.4941 14.6727C14.8848 15.0634 15.1043 15.5933 15.1043 16.1458V21.875" stroke="white" stroke-width="1.5" stroke-linecap="round" stroke-linejoin="round"/>
</svg>
