<svg width="25" height="25" viewBox="0 0 25 25" fill="none" xmlns="http://www.w3.org/2000/svg">
<path d="M22.9166 8.85411V14.0624M14.8093 3.64577C14.0876 3.30321 13.2988 3.12549 12.4999 3.12549C11.7011 3.12549 10.9122 3.30321 10.1905 3.64577L3.22075 6.91348C1.70409 7.6239 1.70409 10.0843 3.22075 10.7947L10.1895 14.0624C10.9113 14.4052 11.7004 14.583 12.4994 14.583C13.2984 14.583 14.0875 14.4052 14.8093 14.0624L21.7791 10.7947C23.2958 10.0843 23.2958 7.6239 21.7791 6.91348L14.8093 3.64577Z" stroke="white" stroke-width="1.5" stroke-linecap="round" stroke-linejoin="round"/>
<path d="M5.20825 11.979V17.3175C5.20825 20.3571 10.0978 21.8748 12.4999 21.8748C14.902 21.8748 19.7916 20.3571 19.7916 17.3175V11.979" stroke="white" stroke-width="1.5" stroke-linecap="round" stroke-linejoin="round"/>
</svg>
