<svg width="23" height="22" viewBox="0 0 23 22" fill="none" xmlns="http://www.w3.org/2000/svg">
<path d="M21.6375 11.2808C21.6375 12.594 21.3788 13.8943 20.8762 15.1076C20.3737 16.3209 19.6371 17.4232 18.7085 18.3518C17.7799 19.2804 16.6775 20.017 15.4643 20.5196C14.251 21.0221 12.9507 21.2808 11.6375 21.2808C10.3242 21.2808 9.02387 21.0221 7.81062 20.5196C6.59736 20.017 5.49497 19.2804 4.56638 18.3518C3.6378 17.4232 2.9012 16.3209 2.39866 15.1076C1.89611 13.8943 1.63745 12.594 1.63745 11.2808C1.63745 8.6286 2.69102 6.08506 4.56638 4.20969C6.44175 2.33433 8.98529 1.28076 11.6375 1.28076C14.2896 1.28076 16.8332 2.33433 18.7085 4.20969C20.5839 6.08506 21.6375 8.6286 21.6375 11.2808Z" stroke="black" stroke-width="1.45594" stroke-linecap="round" stroke-linejoin="round"/>
<path d="M9.73865 8.50342C9.47874 8.50327 9.22135 8.55436 8.98119 8.65375C8.74104 8.75315 8.52283 8.89891 8.33904 9.0827C8.15526 9.26648 8.0095 9.48469 7.9101 9.72485C7.81071 9.965 7.75962 10.2224 7.75977 10.4823C7.75977 12.6701 11.5098 15.1701 11.5098 15.1701C11.5098 15.1701 15.2598 12.6701 15.2598 10.4823C15.2598 9.12786 14.3742 8.50342 13.2809 8.50342C12.5053 8.50342 11.8342 8.94786 11.5098 9.59786C11.3455 9.2688 11.0927 8.99206 10.7799 8.79873C10.467 8.6054 10.1064 8.50313 9.73865 8.50342Z" stroke="black" stroke-width="1.45594" stroke-linecap="round" stroke-linejoin="round"/>
</svg>
