<svg width="21" height="21" viewBox="0 0 21 21" fill="none" xmlns="http://www.w3.org/2000/svg">
<path d="M5.60636 17.7805C4.62469 17.7805 3.82886 16.9638 3.82886 15.9555V8.6205C3.82886 8.06634 4.07469 7.54134 4.49552 7.1955L9.38469 3.1805C9.69707 2.92182 10.0899 2.78027 10.4955 2.78027C10.9011 2.78027 11.294 2.92182 11.6064 3.1805L16.4947 7.1955C16.9164 7.54134 17.1622 8.06634 17.1622 8.6205V15.9555C17.1622 16.9638 16.3664 17.7805 15.3847 17.7805H5.60636Z" stroke="black" stroke-width="1.45594" stroke-linecap="round" stroke-linejoin="round"/>
<path d="M8.41211 17.7803V13.1969C8.41211 12.7549 8.5877 12.331 8.90027 12.0184C9.21283 11.7059 9.63675 11.5303 10.0788 11.5303H10.9121C11.3541 11.5303 11.7781 11.7059 12.0906 12.0184C12.4032 12.331 12.5788 12.7549 12.5788 13.1969V17.7803" stroke="black" stroke-width="1.45594" stroke-linecap="round" stroke-linejoin="round"/>
</svg>
