<svg width="17" height="17" viewBox="0 0 17 17" fill="none" xmlns="http://www.w3.org/2000/svg">
<path d="M5.09578 1.40967C2.90995 1.40967 1.13745 3.293 1.13745 5.6155C1.13745 10.2638 8.63745 15.5763 8.63745 15.5763C8.63745 15.5763 16.1375 10.2638 16.1375 5.6155C16.1375 2.738 14.365 1.40967 12.1791 1.40967C10.6291 1.40967 9.28745 2.35633 8.63745 3.73467C7.98745 2.35633 6.64578 1.40967 5.09578 1.40967Z" stroke="black" stroke-width="1.4" stroke-linecap="round" stroke-linejoin="round"/>
<path d="M11.1375 11.4097C11.1375 8.19221 6.13745 8.19221 6.13745 11.4097" stroke="black" stroke-width="1.4" stroke-linecap="round" stroke-linejoin="round"/>
<path d="M8.63737 8.90951C9.0794 8.90951 9.50332 8.73391 9.81588 8.42135C10.1284 8.10879 10.304 7.68487 10.304 7.24284C10.304 6.80081 10.1284 6.37689 9.81588 6.06433C9.50332 5.75177 9.0794 5.57617 8.63737 5.57617C8.19534 5.57617 7.77142 5.75177 7.45886 6.06433C7.1463 6.37689 6.9707 6.80081 6.9707 7.24284C6.9707 7.68487 7.1463 8.10879 7.45886 8.42135C7.77142 8.73391 8.19534 8.90951 8.63737 8.90951Z" stroke="black" stroke-width="1.4" stroke-linecap="round" stroke-linejoin="round"/>
</svg>
