<svg  viewBox="0 0 16 25" fill="none" xmlns="http://www.w3.org/2000/svg">
<g clip-path="url(#clip0_82_5497)">
<path d="M5.28003 14.67V24.0781C5.73063 24.06 6.24301 24.198 6.64637 23.9073C9.17192 21.1274 12.1662 18.6164 14.6845 15.8546C15.0116 15.4949 15.266 15.0007 15.5821 14.6736C15.6075 14.6446 15.8982 14.7754 15.9528 14.561C16.0545 14.1431 15.9855 11.8792 15.9019 11.3704C15.7965 10.7345 15.1097 9.42993 14.4084 9.42993H10.7054L10.5201 0.0181688C10.0622 0.0363382 9.54622 -0.101749 9.15376 0.188961L0.0763072 9.36816C0.0872089 10.869 -0.534186 14.3211 1.58437 14.6555C2.69271 14.8299 4.12809 14.5501 5.28003 14.6664V14.67Z" fill="currentColor"/>
<path d="M5.28003 14.67C4.12809 14.5537 2.69634 14.8335 1.58437 14.6591C-0.534186 14.3248 0.0872088 10.8726 0.0763072 9.36816L9.15375 0.188961C9.54621 -0.101749 10.0622 0.0363382 10.5201 0.0181688L10.7018 9.4263H14.4047C15.1024 9.4263 15.7929 10.7345 15.8982 11.3668C15.9818 11.8755 16.0509 14.1395 15.9491 14.5573C15.8946 14.7717 15.6075 14.6446 15.5785 14.67C14.3975 14.521 12.228 15.0407 11.2977 14.2485C11.1451 14.1176 10.5165 13.1038 10.5165 12.9512V9.60436C8.61231 11.0943 7.12968 13.0929 5.2764 14.67H5.28003Z" fill="currentColor"/>
<path d="M5.28027 14.6699C7.13719 13.0928 8.61618 11.0978 10.5203 9.60425V12.9511C10.5203 13.1037 11.1454 14.1175 11.3016 14.2484C12.2319 15.0405 14.4013 14.5209 15.5823 14.6699C15.2662 14.9969 15.0118 15.4911 14.6848 15.8509C12.1701 18.6127 9.17217 21.1237 6.64662 23.9036C6.24689 24.1943 5.73088 24.0562 5.28027 24.0744V14.6663V14.6699Z" fill="currentColor"/>
</g>
<defs>
<clipPath id="clip0_82_5497">
<rect width="16" height="24.0927" fill="currentColor"/>
</clipPath>
</defs>
</svg>
