<svg width="30" height="30" viewBox="0 0 30 30" fill="none" xmlns="http://www.w3.org/2000/svg">
<path d="M26.0142 14.2882C26.0142 15.7283 25.7306 17.1543 25.1795 18.4847C24.6284 19.8152 23.8207 21.0241 22.8024 22.0424C21.7841 23.0607 20.5752 23.8684 19.2448 24.4195C17.9143 24.9706 16.4883 25.2542 15.0483 25.2542C13.6082 25.2542 12.1822 24.9706 10.8518 24.4195C9.5213 23.8684 8.31242 23.0607 7.29414 22.0424C6.27585 21.0241 5.4681 19.8152 4.91701 18.4847C4.36592 17.1543 4.08228 15.7283 4.08228 14.2882C4.08228 11.3799 5.23762 8.59065 7.29414 6.53413C9.35066 4.47761 12.1399 3.32227 15.0483 3.32227C17.9566 3.32227 20.7459 4.47761 22.8024 6.53413C24.8589 8.59065 26.0142 11.3799 26.0142 14.2882Z" stroke="white" stroke-width="1.82766" stroke-linecap="round" stroke-linejoin="round"/>
<path d="M12.9661 11.2422C12.681 11.242 12.3988 11.298 12.1354 11.407C11.8721 11.516 11.6328 11.6759 11.4313 11.8774C11.2297 12.079 11.0699 12.3182 10.9609 12.5816C10.8519 12.845 10.7959 13.1272 10.796 13.4122C10.796 15.8113 14.9083 18.5528 14.9083 18.5528C14.9083 18.5528 19.0205 15.8113 19.0205 13.4122C19.0205 11.927 18.0494 11.2422 16.8505 11.2422C16 11.2422 15.264 11.7296 14.9083 12.4424C14.7281 12.0815 14.451 11.778 14.1079 11.566C13.7648 11.354 13.3694 11.2419 12.9661 11.2422Z" stroke="white" stroke-width="1.82766" stroke-linecap="round" stroke-linejoin="round"/>
</svg>
