<svg  viewBox="0 0 24 25" fill="none" xmlns="http://www.w3.org/2000/svg">
<g clip-path="url(#clip0_82_5475)">
<path d="M12.1853 23.1945C12.4387 23.1945 12.6467 23.3987 12.6467 23.6483C12.6467 23.8979 12.4425 24.1021 12.1853 24.1021C11.9281 24.1021 11.7239 23.8979 11.7239 23.6483C11.7239 23.3987 11.9281 23.1945 12.1853 23.1945ZM11.6861 1.44847C11.9092 1.46738 12.0908 1.63757 12.1248 1.85692L12.6732 5.83549C12.8585 7.14781 14.4431 7.71888 15.4188 6.82635L20.9026 1.83423C21.035 1.71321 21.2392 1.72077 21.364 1.85314C21.4775 1.97416 21.4775 2.15569 21.3716 2.28049L16.5875 7.7983C15.7063 8.81185 16.3568 10.3965 17.6993 10.5099L21.92 10.9184C22.1317 10.9373 22.283 11.1226 22.2641 11.3306C22.249 11.5008 22.1166 11.6407 21.9426 11.6672L17.5102 12.3593C16.2244 12.5332 15.6382 14.0574 16.4778 15.0482L18.0359 16.8862C18.1607 17.0337 18.1418 17.2531 17.9905 17.3779C17.862 17.4838 17.6804 17.4876 17.5481 17.3892L15.6269 15.937C14.5906 15.1579 13.0968 15.8197 12.9871 17.1094L12.5635 22.1431C12.5446 22.3511 12.3631 22.5061 12.1513 22.4872C11.9735 22.4721 11.8298 22.336 11.8033 22.162L11.1302 17.2985C10.9486 15.9861 9.36401 15.4151 8.38449 16.3076L2.54901 21.6212C2.42799 21.7309 2.23889 21.7233 2.12922 21.6061C2.0271 21.4964 2.02332 21.33 2.12165 21.2165L7.2121 15.3394C8.09329 14.3259 7.44658 12.7413 6.104 12.6278L1.88339 12.2194C1.6716 12.2004 1.52033 12.0151 1.53924 11.8071C1.55437 11.6369 1.68673 11.497 1.8607 11.4705L6.2931 10.7784C7.57895 10.6045 8.16893 9.08037 7.32934 8.08951L6.26662 6.83769C6.11157 6.65238 6.13426 6.38008 6.31957 6.22502C6.47841 6.09644 6.70533 6.08888 6.86795 6.21368L8.17271 7.19697C9.20895 7.97605 10.7028 7.31421 10.8125 6.02458L11.1642 1.87961C11.1869 1.61866 11.4176 1.422 11.6823 1.44469L11.6861 1.44847ZM0.461393 11.3457C0.714781 11.3457 0.922786 11.55 0.922786 11.7996C0.922786 12.0492 0.718563 12.2534 0.461393 12.2534C0.204223 12.2534 0 12.0492 0 11.7996C0 11.55 0.204223 11.3457 0.461393 11.3457ZM23.5424 10.8806C23.7958 10.8806 24.0038 11.0848 24.0038 11.3344C24.0038 11.584 23.7996 11.7882 23.5424 11.7882C23.2852 11.7882 23.081 11.584 23.081 11.3344C23.081 11.0848 23.2852 10.8806 23.5424 10.8806ZM11.618 0C11.8714 0 12.0794 0.204223 12.0794 0.453829C12.0794 0.703435 11.8752 0.907658 11.618 0.907658C11.3609 0.907658 11.1566 0.703435 11.1566 0.453829C11.1566 0.204223 11.3609 0 11.618 0Z" fill="currentColor"/>
<path d="M11.8942 15.8689C14.2958 15.8689 16.2397 13.9439 16.2397 11.5688C16.2397 9.19379 14.292 7.2688 11.8942 7.2688C9.49651 7.2688 7.54883 9.19379 7.54883 11.5688C7.54883 13.9439 9.49651 15.8689 11.8942 15.8689Z" fill="currentColor"/>
</g>
<defs>
<clipPath id="clip0_82_5475">
<rect width="24" height="24.1021" fill="currentColor"/>
</clipPath>
</defs>
</svg>
