<svg width="30" height="30" viewBox="0 0 30 30" fill="none" xmlns="http://www.w3.org/2000/svg">
<path d="M26.0142 14.8976C26.0142 16.3377 25.7306 17.7637 25.1795 19.0941C24.6284 20.4246 23.8207 21.6335 22.8024 22.6517C21.7841 23.67 20.5752 24.4778 19.2448 25.0289C17.9143 25.58 16.4883 25.8636 15.0483 25.8636C13.6082 25.8636 12.1822 25.58 10.8518 25.0289C9.5213 24.4778 8.31242 23.67 7.29414 22.6517C6.27585 21.6335 5.4681 20.4246 4.91701 19.0941C4.36592 17.7637 4.08228 16.3377 4.08228 14.8976C4.08228 11.9893 5.23762 9.20002 7.29414 7.1435C9.35066 5.08698 12.1399 3.93164 15.0483 3.93164C17.9566 3.93164 20.7459 5.08698 22.8024 7.1435C24.8589 9.20002 26.0142 11.9893 26.0142 14.8976Z" stroke="white" stroke-width="1.82766" stroke-linecap="round" stroke-linejoin="round"/>
<path d="M21.1406 24.0356C20.7544 16.4971 9.34242 16.4971 8.95618 24.0356M18.0945 11.5466C18.0945 12.3545 17.7736 13.1293 17.2023 13.7005C16.6311 14.2718 15.8563 14.5927 15.0484 14.5927C14.2405 14.5927 13.4657 14.2718 12.8945 13.7005C12.3232 13.1293 12.0023 12.3545 12.0023 11.5466C12.0023 10.7387 12.3232 9.96393 12.8945 9.39267C13.4657 8.82142 14.2405 8.50049 15.0484 8.50049C15.8563 8.50049 16.6311 8.82142 17.2023 9.39267C17.7736 9.96393 18.0945 10.7387 18.0945 11.5466Z" stroke="white" stroke-width="1.82766" stroke-linecap="round" stroke-linejoin="round"/>
</svg>
