<svg  viewBox="0 0 24 24" fill="none" xmlns="http://www.w3.org/2000/svg">
<g clip-path="url(#clip0_82_5491)">
<path d="M3.51489 3.36865C-1.19047 7.67596 -1.12663 15.6597 3.42477 20.0759C7.24013 15.1114 7.05237 8.41199 3.51489 3.36865Z" fill="currentColor"/>
<path d="M20.7632 3.36865C16.7976 7.96887 16.8201 15.3931 20.6731 20.0759C24.1429 16.3469 25.048 10.8191 22.6746 6.24895C22.1376 5.2125 21.3565 4.3638 20.7669 3.36865H20.7632Z" fill="currentColor"/>
<path d="M20.3914 20.2712C15.4119 16.7075 8.60358 16.5272 3.71045 20.3614C8.1905 24.8902 15.9564 24.8114 20.3914 20.2712Z" fill="currentColor"/>
<path d="M20.4588 3.01172C15.4793 -0.552038 8.67096 -0.732291 3.77783 3.10185C8.25788 7.63072 16.0238 7.55186 20.4588 3.01172Z" fill="currentColor"/>
</g>
<defs>
<clipPath id="clip0_82_5491">
<rect width="24" height="23.4367" fill="currentColor" transform="translate(0 0.281738)"/>
</clipPath>
</defs>
</svg>
