<svg viewBox="0 0 24 18" fill="none" xmlns="http://www.w3.org/2000/svg">
<path d="M13.4743 14.7169C13.2028 14.4383 13.3762 13.8497 13.193 13.5398C11.9271 15.9775 7.1186 18.0531 7.63216 13.5398C6.29755 15.591 3.63162 18.2725 1.10633 17.0014C-1.05586 15.9148 0.475014 11.4886 1.3026 9.76126C3.65124 4.86486 10.0986 -1.10763 15.6038 0.177413C21.531 1.55997 19.8562 11.5304 16.1337 14.4104C15.5253 14.8805 14.0697 15.3367 13.4743 14.7203V14.7169ZM12.1692 4.70467C11.3547 5.52306 12.0907 7.53594 13.229 6.97178C14.5243 6.32751 13.3893 3.48231 12.1692 4.70467ZM15.8491 4.51313C14.6094 4.74994 14.9823 7.27475 16.2613 7.06929C17.4291 6.88123 17.3342 4.22756 15.8491 4.51313Z" fill="currentColor"/>
</svg>
