<svg width="30" height="30" viewBox="0 0 30 30" fill="none" xmlns="http://www.w3.org/2000/svg">
<path d="M13.7006 11.5786L16.6322 8.39114C18.1958 6.69263 18.3908 5.20613 17.217 3.93164M10.1744 6.67314V6.06391M24.7957 5.7593V5.15008M24.7957 16.7253V16.1161M22.3588 22.8175V22.2083M17.2182 15.4021L20.1498 12.2158C22.105 10.0909 24.0598 10.0909 26.0142 12.2158M4.90465 25.8283C4.79579 25.8661 4.67851 25.8729 4.56603 25.8477C4.45355 25.8225 4.35033 25.7664 4.26801 25.6857C4.18569 25.6051 4.12753 25.503 4.10008 25.3911C4.07263 25.2791 4.07699 25.1617 4.11266 25.0521L7.26843 11.4982C7.41464 11.0425 7.99949 10.9194 8.31873 11.2752L17.769 20.4671C17.8367 20.5433 17.8847 20.6351 17.9086 20.7342C17.9325 20.8333 17.9317 20.9368 17.9062 21.0356C17.8807 21.1343 17.8312 21.2252 17.7622 21.3003C17.6933 21.3754 17.6069 21.4324 17.5107 21.4662L4.90465 25.8283Z" stroke="white" stroke-width="1.82766" stroke-linecap="round" stroke-linejoin="round"/>
</svg>
